<?xml version="1.0" encoding="UTF-8" standalone="no"?>
<!-- Created with Inkscape (http://www.inkscape.org/) -->

<svg
   width="58.162262mm"
   height="11mm"
   viewBox="0 0 58.162262 11"
   version="1.1"
   id="svg5"
   inkscape:version="1.2.2 (732a01da63, 2022-12-09)"
   sodipodi:docname="OncoPrevia_updated_path.svg"
   inkscape:export-filename="Oncoprevia_test.svg"
   inkscape:export-xdpi="96"
   inkscape:export-ydpi="96"
   xml:space="preserve"
   xmlns:inkscape="http://www.inkscape.org/namespaces/inkscape"
   xmlns:sodipodi="http://sodipodi.sourceforge.net/DTD/sodipodi-0.dtd"
   xmlns:xlink="http://www.w3.org/1999/xlink"
   xmlns="http://www.w3.org/2000/svg"
   xmlns:svg="http://www.w3.org/2000/svg"><sodipodi:namedview
     id="namedview7"
     pagecolor="#ffffff"
     bordercolor="#000000"
     borderopacity="0.25"
     inkscape:showpageshadow="2"
     inkscape:pageopacity="0.0"
     inkscape:pagecheckerboard="0"
     inkscape:deskcolor="#d1d1d1"
     inkscape:document-units="mm"
     showgrid="false"
     inkscape:zoom="2.7545174"
     inkscape:cx="3.08584"
     inkscape:cy="81.32096"
     inkscape:window-width="1920"
     inkscape:window-height="1009"
     inkscape:window-x="3192"
     inkscape:window-y="-8"
     inkscape:window-maximized="1"
     inkscape:current-layer="text4153"
     showguides="false" /><defs
     id="defs2"><linearGradient
       inkscape:collect="always"
       id="linearGradient9058"><stop
         style="stop-color:#439e9a;stop-opacity:1;"
         offset="0"
         id="stop9054" /><stop
         style="stop-color:#439e9a;stop-opacity:0;"
         offset="1"
         id="stop9056" /></linearGradient><rect
       x="180.06784"
       y="10.16512"
       width="833.9328"
       height="113.03185"
       id="rect4155" /><rect
       x="180.06784"
       y="10.16512"
       width="833.9328"
       height="113.03185"
       id="rect4155-1" /><linearGradient
       inkscape:collect="always"
       xlink:href="#linearGradient9058"
       id="linearGradient9060"
       x1="183.05346"
       y1="-18.317701"
       x2="342.95695"
       y2="-18.317701"
       gradientUnits="userSpaceOnUse" /></defs><g
     inkscape:label="Ebene 1"
     inkscape:groupmode="layer"
     id="layer1"
     transform="translate(-21.739389,-18)"><g
       aria-label="Oncoprevia"
       transform="matrix(0.26458333,0,0,0.26458333,-14.768942,28.346559)"
       id="text4153"
       style="font-size:37.3333px;font-family:'Segoe UI';-inkscape-font-specification:'Segoe UI';letter-spacing:-3px;white-space:pre;shape-inside:url(#rect4155);display:inline;fill:#d0cece"><g
         aria-label="OncoPrevia"
         id="text809"
         style="line-height:0;opacity:1;fill:url(#linearGradient9060);stroke:#348ec1;stroke-width:1.00157;stroke-miterlimit:0"><path
           d="m 195.30345,-4.4544319 q -5.55989,0 -8.91406,-3.6640594 -3.33593,-3.6640597 -3.33593,-9.5338457 0,-6.307287 3.40885,-10.062492 3.40885,-3.755205 9.27864,-3.755205 5.41406,0 8.71353,3.64583 3.31771,3.645831 3.31771,9.533846 0,6.398432 -3.39062,10.1171793 -3.39063,3.7187468 -9.07812,3.7187468 z m 0.21875,-24.2447711 q -4.11979,0 -6.6901,2.971352 -2.57031,2.971351 -2.57031,7.802076 0,4.830725 2.49739,7.783848 2.51563,2.9348933 6.54427,2.9348933 4.30208,0 6.78124,-2.8072893 2.47917,-2.807289 2.47917,-7.856764 0,-5.177079 -2.40625,-8.002598 -2.40625,-2.825518 -6.63541,-2.825518 z"
           style="fill:#439e9a;stroke:none"
           id="path9062" /><path
           d="m 225.00655,-4.8919315 h -2.98958 V -15.537756 q 0,-5.942703 -4.33854,-5.942703 -2.24219,0 -3.71875,1.695311 -1.45833,1.677082 -1.45833,4.247392 v 10.6458245 h -2.98958 V -23.558582 h 2.98958 v 3.098955 h 0.0729 q 2.11458,-3.536455 6.12499,-3.536455 3.0625,0 4.68489,1.986978 1.6224,1.968748 1.6224,5.705724 z"
           style="fill:#439e9a;stroke:none"
           id="path9064" /><path
           d="m 240.3633,-5.7487016 q -2.15104,1.2942697 -5.10416,1.2942697 -3.99218,0 -6.45312,-2.5885395 -2.44271,-2.6067686 -2.44271,-6.7447856 0,-4.611976 2.64323,-7.401036 2.64323,-2.807289 7.05468,-2.807289 2.46094,0 4.33854,0.911458 v 3.062497 q -2.07812,-1.458332 -4.44791,-1.458332 -2.86198,0 -4.70312,2.059894 -1.82292,2.041665 -1.82292,5.3776 0,3.281247 1.71354,5.1770785 1.73177,1.8958317 4.63021,1.8958317 2.4427,0 4.59374,-1.6223944 z"
           style="fill:#439e9a;stroke:none"
           id="path9066" /><path
           d="m 249.68621,-4.4544319 q -4.13802,0 -6.61718,-2.6067686 -2.46094,-2.6249978 -2.46094,-6.9453065 0,-4.703121 2.57031,-7.346348 2.57031,-2.643227 6.94531,-2.643227 4.17447,0 6.50781,2.57031 2.35156,2.570311 2.35156,7.127598 0,4.4661425 -2.53386,7.1640569 -2.51562,2.6796852 -6.76301,2.6796852 z m 0.21875,-17.0260271 q -2.88021,0 -4.55729,1.968748 -1.67708,1.950519 -1.67708,5.395829 0,3.317705 1.69531,5.2317664 1.69531,1.9140608 4.53906,1.9140608 2.89843,0 4.44791,-1.8776025 1.56771,-1.8776027 1.56771,-5.3411417 0,-3.499997 -1.56771,-5.395828 -1.54948,-1.895832 -4.44791,-1.895832 z"
           style="fill:#439e9a;stroke:none"
           id="path9068" /><path
           d="m 264.22266,-14.772131 v 9.8801995 h -3.0625 V -31.032534 h 7.18228 q 4.19271,0 6.48958,2.041665 2.3151,2.041665 2.3151,5.760411 0,3.718747 -2.57031,6.088537 -2.55208,2.36979 -6.90884,2.36979 z m 0,-13.489572 v 10.718741 h 3.20833 q 3.17187,0 4.83072,-1.440103 1.67708,-1.458332 1.67708,-4.101559 0,-5.177079 -6.12499,-5.177079 z"
           style="fill:#439e9a;stroke:none"
           id="path9070" /><path
           d="m 288.40231,-20.532543 q -0.78385,-0.601562 -2.26041,-0.601562 -1.91406,0 -3.20833,1.804686 -1.27604,1.804686 -1.27604,4.921871 v 9.5156165 h -2.98958 V -23.558582 h 2.98958 v 3.846351 h 0.0729 q 0.63802,-1.968749 1.95052,-3.062498 1.3125,-1.111978 2.9349,-1.111978 1.16666,0 1.78645,0.255208 z"
           style="letter-spacing:-1.5px;fill:#439e9a;stroke:none"
           id="path9072" /><path
           d="m 305.14969,-13.477862 h -13.17967 q 0.0729,3.117185 1.67708,4.8124962 1.60416,1.695311 4.41145,1.695311 3.15365,0 5.79687,-2.0781232 v 2.8072893 q -2.46093,1.7864568 -6.5078,1.7864568 -3.95573,0 -6.21614,-2.533852 -2.26042,-2.5520812 -2.26042,-7.1640561 0,-4.356767 2.46094,-7.09114 2.47916,-2.752602 6.14322,-2.752602 3.66406,0 5.66927,2.36979 2.0052,2.369789 2.0052,6.580723 z m -3.06249,-2.533852 q -0.0182,-2.588539 -1.25782,-4.028642 -1.22135,-1.440103 -3.40885,-1.440103 -2.11458,0 -3.59114,1.513019 -1.47656,1.51302 -1.82291,3.955726 z"
           style="letter-spacing:-2px;fill:#439e9a;stroke:none"
           id="path9074" /><path
           d="m 322.34499,-23.558582 -7.43749,18.6666505 h -2.9349 l -7.07291,-18.6666505 h 3.28125 l 4.73958,13.5624881 q 0.52865,1.4947904 0.65625,2.6067687 h 0.0729 q 0.18229,-1.4036447 0.58333,-2.533852 l 4.95833,-13.6354048 z"
           style="letter-spacing:-2px;fill:#439e9a;stroke:none"
           id="path9076" /><path
           d="m 325.08457,-28.298162 q -0.80208,0 -1.36719,-0.546874 -0.5651,-0.546875 -0.5651,-1.385416 0,-0.838541 0.5651,-1.385415 0.56511,-0.565104 1.36719,-0.565104 0.82031,0 1.38542,0.565104 0.58333,0.546874 0.58333,1.385415 0,0.802083 -0.58333,1.367187 -0.56511,0.565103 -1.38542,0.565103 z m 1.45833,23.4062305 h -2.98958 V -23.558582 h 2.98958 z"
           style="fill:#439e9a;stroke:none"
           id="path9078" /><path
           d="m 342.95695,-4.8919315 h -2.98958 v -2.9166642 h -0.0729 q -1.95052,3.3541638 -5.74218,3.3541638 -2.78906,0 -4.375,-1.4765612 -1.56771,-1.4765613 -1.56771,-3.9192675 0,-5.2317664 6.16146,-6.0885364 l 5.59635,-0.783854 q 0,-4.757808 -3.84636,-4.757808 -3.37239,0 -6.08853,2.296873 v -3.062497 q 2.7526,-1.749999 6.34374,-1.749999 6.58073,0 6.58073,6.963536 z m -2.98958,-9.4427005 -4.50261,0.619791 q -2.07812,0.291667 -3.13541,1.039062 -1.05729,0.729166 -1.05729,2.606769 0,1.3671859 0.96615,2.2421851 0.98437,0.8567701 2.60676,0.8567701 2.22396,0 3.66406,-1.5494778 1.45834,-1.5677074 1.45834,-3.9557254 z"
           style="fill:#439e9a;stroke:none"
           id="path9080" /></g><g
         aria-label="TM"
         transform="translate(162.72713,-37.819603)"
         id="text809-7"
         style="font-size:10.6667px;line-height:0;letter-spacing:-0.6px;shape-inside:url(#rect4155);display:inline;fill:#439e9a;stroke:#348ec1;stroke-width:1.00157;stroke-miterlimit:0"><path
           d="m 186.16734,7.0084278 h -2.13022 v 6.0989772 h -1.6875 V 7.0084278 h -2.1198 v -1.369796 h 5.93752 z"
           style="font-weight:bold;-inkscape-font-specification:'Segoe UI Bold';stroke:none"
           id="path9083" /><path
           d="m 195.08299,13.107405 h -1.66146 V 8.6386413 q 0,-0.7239606 0.0625,-1.5989634 h -0.0417 q -0.13021,0.6875022 -0.23437,0.9895865 l -1.75001,5.0781406 h -1.375 l -1.78126,-5.0260571 q -0.0729,-0.2031257 -0.23438,-1.04167 h -0.0469 q 0.0677,1.1041702 0.0677,1.9375061 v 4.130221 h -1.51563 V 5.6386318 h 2.46355 l 1.52604,4.4270972 q 0.1823,0.531252 0.26563,1.067712 h 0.0312 q 0.14063,-0.619794 0.29688,-1.078129 l 1.52604,-4.4166802 h 2.40105 z"
           style="font-weight:bold;-inkscape-font-specification:'Segoe UI Bold';stroke:none"
           id="path9085" /></g></g><circle
       style="fill:#439e9a;fill-opacity:1;stroke-width:0.0805164"
       id="path111-7"
       cy="23.5"
       cx="27.239389"
       r="5.5" /><ellipse
       style="fill:#ffffff;stroke-width:0.15622"
       id="path225-0"
       cx="27.239389"
       cy="23.5"
       rx="4.4000001"
       ry="4.3999996" /><rect
       style="fill:#439e9a;fill-opacity:1;stroke-width:0.0718047"
       id="rect1682-0"
       width="2.0166667"
       height="6.2333336"
       x="26.231056"
       y="20.383333" /><rect
       style="fill:#439e9a;fill-opacity:1;stroke-width:0.0718047"
       id="rect1682-7-9"
       width="6.2333336"
       height="2.0166667"
       x="24.122725"
       y="22.491667" /></g></svg>
