<?xml version="1.0" encoding="UTF-8" standalone="no"?>
<!-- Created with Inkscape (http://www.inkscape.org/) -->

<svg
   width="54.911568mm"
   height="11.369749mm"
   viewBox="0 0 54.911567 11.369749"
   version="1.1"
   id="svg5"
   inkscape:version="1.2.2 (732a01da63, 2022-12-09)"
   sodipodi:docname="Oncoprevia.svg"
   inkscape:export-filename="Oncoprevia_test.svg"
   inkscape:export-xdpi="96"
   inkscape:export-ydpi="96"
   xmlns:inkscape="http://www.inkscape.org/namespaces/inkscape"
   xmlns:sodipodi="http://sodipodi.sourceforge.net/DTD/sodipodi-0.dtd"
   xmlns="http://www.w3.org/2000/svg"
   xmlns:svg="http://www.w3.org/2000/svg">
  <sodipodi:namedview
     id="namedview7"
     pagecolor="#ffffff"
     bordercolor="#000000"
     borderopacity="0.25"
     inkscape:showpageshadow="2"
     inkscape:pageopacity="0.0"
     inkscape:pagecheckerboard="0"
     inkscape:deskcolor="#d1d1d1"
     inkscape:document-units="mm"
     showgrid="false"
     inkscape:zoom="1.9477379"
     inkscape:cx="12.065278"
     inkscape:cy="66.744093"
     inkscape:window-width="1920"
     inkscape:window-height="1009"
     inkscape:window-x="3192"
     inkscape:window-y="-8"
     inkscape:window-maximized="1"
     inkscape:current-layer="text4153"
     showguides="false" />
  <defs
     id="defs2">
    <rect
       x="180.06784"
       y="10.16512"
       width="833.9328"
       height="113.03185"
       id="rect4155" />
    <rect
       x="180.06784"
       y="10.16512"
       width="833.9328"
       height="113.03185"
       id="rect4155-1" />
  </defs>
  <g
     inkscape:label="Ebene 1"
     inkscape:groupmode="layer"
     id="layer1"
     transform="translate(-21.739389,-18)">
    <g
       aria-label="Oncoprevia"
       transform="matrix(0.26458333,0,0,0.26458333,-14.089735,15.510852)"
       id="text4153"
       style="font-size:37.3333px;font-family:'Segoe UI';-inkscape-font-specification:'Segoe UI';letter-spacing:-3px;white-space:pre;shape-inside:url(#rect4155);display:inline;fill:#d0cece">
      <path
         d="m 194.03189,44.231652 q -5.55989,0 -8.91406,-3.66406 -3.33593,-3.664059 -3.33593,-9.533846 0,-6.307286 3.40885,-10.062491 3.40885,-3.755205 9.27864,-3.755205 5.41406,0 8.71353,3.64583 3.31771,3.64583 3.31771,9.533846 0,6.398432 -3.39062,10.117179 -3.39063,3.718747 -9.07812,3.718747 z m 0.21875,-24.244771 q -4.11979,0 -6.6901,2.971351 -2.57031,2.971352 -2.57031,7.802077 0,4.830725 2.49739,7.783848 2.51563,2.934893 6.54427,2.934893 4.30208,0 6.78124,-2.807289 2.47917,-2.80729 2.47917,-7.856765 0,-5.177078 -2.40625,-8.002597 -2.40625,-2.825518 -6.63541,-2.825518 z"
         style="fill:#439e9a"
         id="path704" />
      <path
         d="m 223.73499,43.794152 h -2.98958 V 33.148328 q 0,-5.942703 -4.33854,-5.942703 -2.24219,0 -3.71875,1.695311 -1.45833,1.677082 -1.45833,4.247392 v 10.645824 h -2.98958 V 25.127501 h 2.98958 v 3.098956 h 0.0729 q 2.11458,-3.536455 6.12499,-3.536455 3.0625,0 4.68489,1.986977 1.6224,1.968748 1.6224,5.705724 z"
         style="fill:#439e9a"
         id="path706" />
      <path
         d="m 239.09174,42.937382 q -2.15104,1.29427 -5.10416,1.29427 -3.99218,0 -6.45312,-2.58854 -2.44271,-2.606768 -2.44271,-6.744786 0,-4.611975 2.64323,-7.401035 2.64323,-2.807289 7.05468,-2.807289 2.46094,0 4.33854,0.911457 v 3.062498 q -2.07812,-1.458332 -4.44791,-1.458332 -2.86198,0 -4.70312,2.059894 -1.82292,2.041665 -1.82292,5.377599 0,3.281247 1.71354,5.177079 1.73177,1.895832 4.63021,1.895832 2.4427,0 4.59374,-1.622395 z"
         style="fill:#439e9a"
         id="path708" />
      <path
         d="m 248.41465,44.231652 q -4.13802,0 -6.61718,-2.606769 -2.46094,-2.624998 -2.46094,-6.945306 0,-4.703121 2.57031,-7.346348 2.57031,-2.643227 6.94531,-2.643227 4.17447,0 6.5078,2.57031 2.35157,2.57031 2.35157,7.127598 0,4.466142 -2.53386,7.164057 -2.51562,2.679685 -6.76301,2.679685 z m 0.21875,-17.026027 q -2.88021,0 -4.55729,1.968748 -1.67708,1.950519 -1.67708,5.395829 0,3.317705 1.69531,5.231766 1.69531,1.914061 4.53906,1.914061 2.89843,0 4.44791,-1.877603 1.56771,-1.877602 1.56771,-5.341141 0,-3.499997 -1.56771,-5.395829 -1.54948,-1.895831 -4.44791,-1.895831 z"
         style="fill:#439e9a"
         id="path710" />
      <path
         d="m 262.55005,41.096238 h -0.0729 v 11.283844 h -2.98958 V 25.127501 h 2.98958 v 3.281248 h 0.0729 q 2.20573,-3.718747 6.45312,-3.718747 3.60938,0 5.63281,2.515623 2.02344,2.497393 2.02344,6.708327 0,4.684892 -2.27865,7.51041 -2.27864,2.80729 -6.23437,2.80729 -3.6276,0 -5.59635,-3.135414 z m -0.0729,-7.52864 v 2.606769 q 0,2.315102 1.49479,3.937497 1.51302,1.604165 3.82812,1.604165 2.71614,0 4.24739,-2.078123 1.54948,-2.078124 1.54948,-5.778641 0,-3.117185 -1.4401,-4.885413 -1.44011,-1.768227 -3.90104,-1.768227 -2.60677,0 -4.19271,1.822915 -1.58593,1.804686 -1.58593,4.539058 z"
         style="fill:#439e9a"
         id="path712" />
      <path
         d="m 288.16981,28.15354 q -0.78385,-0.601562 -2.26041,-0.601562 -1.91406,0 -3.20833,1.804686 -1.27604,1.804686 -1.27604,4.921871 v 9.515617 h -2.98958 V 25.127501 h 2.98958 v 3.846351 h 0.0729 q 0.63802,-1.968748 1.95051,-3.062497 1.3125,-1.111978 2.9349,-1.111978 1.16666,0 1.78645,0.255208 z"
         style="letter-spacing:-1.44px;fill:#439e9a"
         id="path714" />
      <path
         d="m 304.9772,35.208222 h -13.17968 q 0.0729,3.117185 1.67709,4.812496 1.60416,1.695311 4.41145,1.695311 3.15364,0 5.79687,-2.078123 v 2.807289 q -2.46093,1.786457 -6.50781,1.786457 -3.95572,0 -6.21614,-2.533852 -2.26041,-2.552081 -2.26041,-7.164057 0,-4.356767 2.46093,-7.091139 2.47917,-2.752602 6.14323,-2.752602 3.66406,0 5.66926,2.369789 2.00521,2.36979 2.00521,6.580724 z m -3.0625,-2.533852 q -0.0182,-2.58854 -1.25781,-4.028643 -1.22135,-1.440102 -3.40885,-1.440102 -2.11458,0 -3.59114,1.513019 -1.47656,1.51302 -1.82292,3.955726 z"
         style="fill:#439e9a"
         id="path716" />
      <path
         d="M 321.17249,25.127501 313.735,43.794152 h -2.9349 l -7.07291,-18.666651 h 3.28125 l 4.73958,13.562489 q 0.52864,1.49479 0.65625,2.606768 h 0.0729 q 0.18229,-1.403644 0.58333,-2.533852 l 4.95833,-13.635405 z"
         style="letter-spacing:-2.14px;fill:#439e9a"
         id="path718" />
      <path
         d="m 323.77207,20.387922 q -0.80208,0 -1.36719,-0.546875 -0.5651,-0.546874 -0.5651,-1.385415 0,-0.838541 0.5651,-1.385415 0.56511,-0.565104 1.36719,-0.565104 0.82031,0 1.38542,0.565104 0.58333,0.546874 0.58333,1.385415 0,0.802083 -0.58333,1.367186 -0.56511,0.565104 -1.38542,0.565104 z m 1.45833,23.40623 h -2.98958 V 25.127501 h 2.98958 z"
         style="fill:#439e9a"
         id="path720" />
      <path
         d="m 341.64445,43.794152 h -2.98958 v -2.916664 h -0.0729 q -1.95052,3.354164 -5.74218,3.354164 -2.78906,0 -4.375,-1.476562 -1.56771,-1.476561 -1.56771,-3.919267 0,-5.231766 6.16146,-6.088536 l 5.59635,-0.783854 q 0,-4.757808 -3.84636,-4.757808 -3.37239,0 -6.08853,2.296873 V 26.44 q 2.7526,-1.749998 6.34374,-1.749998 6.58073,0 6.58073,6.963535 z m -2.98958,-9.4427 -4.50261,0.619791 q -2.07812,0.291666 -3.13541,1.039062 -1.05729,0.729166 -1.05729,2.606768 0,1.367187 0.96615,2.242186 0.98437,0.85677 2.60676,0.85677 2.22396,0 3.66406,-1.549478 1.45834,-1.567707 1.45834,-3.955726 z"
         style="fill:#439e9a"
         id="path722" />
    </g>
    <circle
       style="fill:#439e9a;fill-opacity:1;stroke-width:0.0805164"
       id="path111-7"
       cy="23.5"
       cx="27.239389"
       r="5.5" />
    <ellipse
       style="fill:#ffffff;stroke-width:0.15622"
       id="path225-0"
       cx="27.239389"
       cy="23.5"
       rx="4.4000001"
       ry="4.3999996" />
    <rect
       style="fill:#439e9a;fill-opacity:1;stroke-width:0.0718047"
       id="rect1682-0"
       width="2.0166667"
       height="6.2333336"
       x="26.231056"
       y="20.383333" />
    <rect
       style="fill:#439e9a;fill-opacity:1;stroke-width:0.0718047"
       id="rect1682-7-9"
       width="6.2333336"
       height="2.0166667"
       x="24.122725"
       y="22.491667" />
  </g>
</svg>
